# xmcd
#
# Track frame offsets:
#	150
#	10165
#	25345
#	42227
#	55942
#	69852
#	83772
#	100192
#	117487
#	132365
#	150082
#
# Disc length: 2160 seconds
# Revision: 3
# Processed by: cddbd v1.5.2PL0 Copyright (c) Steve Scherf et al.
# Submitted via: dBpowerAMP V12.0
#
DISCID=7f086e0b
DTITLE=Rosanne Cash - 10 Song Demo
DYEAR=1996
DGENRE=Country
TTITLE0=Price of Temptation
TTITLE1=If I Were a Man
TTITLE2=The Summer I Read Collette
TTITLE3=Western Wall
TTITLE4=Bells and Roses
TTITLE5=List of Burdens
TTITLE6=Child of Steel
TTITLE7=Just Don't Talk About It
TTITLE8=I Want to Know
TTITLE9=Take My Body
TTITLE10=Mid-Air
EXTD=
EXTT0=
EXTT1=
EXTT2=
EXTT3=
EXTT4=
EXTT5=
EXTT6=
EXTT7=
EXTT8=
EXTT9=
EXTT10=
PLAYORDER=
